<svg width="78" height="30" viewBox="0 0 78 30" fill="none" xmlns="http://www.w3.org/2000/svg">
<path d="M1.49561 3.05255H3.56827C3.9703 3.05255 4.32338 3.31967 4.43272 3.70655L5.70171 8.19656C5.9222 8.97671 6.98174 9.08869 7.36045 8.37187L9.2504 4.79448C9.27921 4.73996 9.30232 4.68261 9.31938 4.62336L9.96242 2.38951C10.1636 1.69056 11.0687 1.50799 11.5251 2.07427L14.2384 5.44069C14.6815 5.99041 15.5564 5.83762 15.7869 5.17026L16.9588 1.7779C17.1454 1.23768 17.7824 1.00679 18.2718 1.30196L19.7282 2.18035C19.9478 2.3128 20.1004 2.53282 20.1474 2.78496L23.5429 20.9992C23.6734 21.6988 24.6296 21.8092 24.916 21.1577V21.1577C25.1693 20.5815 25.9868 20.5815 26.2401 21.1577L26.9475 22.7669C27.091 23.0931 27.4136 23.3037 27.7699 23.3037H30.2131C30.5962 23.3037 30.9372 23.5466 31.0622 23.9087L32.5835 28.3126C32.8781 29.1655 34.1055 29.1003 34.308 28.2209L34.9006 25.6478C35.0871 24.8377 36.1791 24.6938 36.5692 25.4278L36.6158 25.5154C37.0045 26.247 38.0922 26.107 38.2831 25.3009L40.3507 16.5722C40.433 16.2246 40.7134 15.9589 41.0649 15.8953L41.9287 15.739C42.1785 15.6938 42.3976 15.545 42.5316 15.3294L43.5239 13.7335C43.8976 13.1324 44.7873 13.1795 45.0955 13.8167L45.9358 15.5543C45.9723 15.6297 45.998 15.7099 46.0123 15.7925L46.854 20.6662C46.9757 21.3707 47.8316 21.6577 48.3533 21.169L50.1945 19.4446C50.6218 19.0444 51.3116 19.1533 51.5948 19.6657L51.9904 20.3815C52.3506 21.0334 53.3021 20.9889 53.5999 20.3062L55.5982 15.7265C55.6152 15.6875 55.6294 15.6474 55.6407 15.6065L57.1155 10.2699C57.3532 9.4096 58.5641 9.38491 58.8367 10.2348L60.5648 15.6223C60.7346 16.1514 61.3563 16.3802 61.8285 16.0873V16.0873C62.2094 15.851 62.708 15.9493 62.9708 16.3123L66.618 21.3516C67.0278 21.9178 67.8989 21.8196 68.1724 21.1764L68.8868 19.4961C69.1297 18.9247 69.8653 18.7662 70.3221 19.1869L70.6447 19.4841C71.1781 19.9754 72.0439 19.6647 72.1432 18.9463L72.6468 15.3016C72.7821 14.3221 74.1697 14.2481 74.4084 15.2077L76.5047 23.6356" stroke="#CB0101" stroke-width="1.5" stroke-linecap="round"/>
</svg>
